<?xml version="1.0" encoding="utf-8"?>
<!-- Generator: Adobe Illustrator 14.0.0, SVG Export Plug-In . SVG Version: 6.00 Build 43363)  -->
<!DOCTYPE svg PUBLIC "-//W3C//DTD SVG 1.1//EN" "http://www.w3.org/Graphics/SVG/1.1/DTD/svg11.dtd">
<svg version="1.1" id="Ebene_1" xmlns="http://www.w3.org/2000/svg" xmlns:xlink="http://www.w3.org/1999/xlink" x="0px" y="0px"
	 width="287.633px" height="44.135px" viewBox="0 0 287.633 44.135" enable-background="new 0 0 287.633 44.135"
	 xml:space="preserve">
<g>
	<path fill="#FFFFFF" d="M5.472,31.752c-1.681-1.152-3.013-2.664-3.996-4.537C0.492,25.344,0,23.448,0,21.528
		c0-1.44,0.276-2.688,0.828-3.744c0.551-1.055,1.284-1.967,2.196-2.736c0.912-0.767,1.919-1.368,3.024-1.8
		c1.104-0.432,2.232-0.72,3.384-0.864c1.584-0.191,3.816-0.384,6.696-0.576c2.88-0.191,6.048-0.288,9.504-0.288
		c1.248-2.016,2.592-3.744,4.032-5.184s2.868-2.628,4.284-3.564c1.415-0.936,2.724-1.631,3.924-2.088
		C39.071,0.228,40.032,0,40.752,0c0.576,0,1.032,0.156,1.368,0.468c0.335,0.313,0.504,1.092,0.504,2.34
		c0,0.385-0.18,0.925-0.54,1.62c-0.36,0.696-0.804,1.465-1.332,2.304c-0.528,0.84-1.092,1.717-1.692,2.628
		c-0.601,0.912-1.116,1.8-1.548,2.664c1.248,0,2.243,0.061,2.988,0.18c0.744,0.121,1.308,0.288,1.692,0.504
		c0.383,0.216,0.635,0.457,0.756,0.72c0.119,0.265,0.18,0.54,0.18,0.828c0,0.385-0.012,0.781-0.036,1.188
		c-0.025,0.408-0.061,0.781-0.108,1.116c-0.049,0.384-0.072,0.768-0.072,1.152c-0.48-0.335-1.033-0.576-1.656-0.72
		c-0.625-0.144-1.272-0.239-1.944-0.288c-0.673-0.047-1.344-0.072-2.016-0.072c-0.673,0-1.321-0.023-1.944-0.072
		c-0.673,1.488-1.332,3.108-1.98,4.86c-0.648,1.752-0.972,3.301-0.972,4.644c0,0.96,0.288,1.812,0.864,2.556
		c0.576,0.745,1.487,1.116,2.736,1.116c0.528,0,1.02-0.071,1.476-0.216c0.456-0.145,0.875-0.264,1.26-0.36
		c1.631-0.671,2.664-1.199,3.096-1.584C42.264,27.192,42.527,27,42.624,27c0.096,0,0.204,0.048,0.324,0.144
		c0.119,0.097,0.18,0.192,0.18,0.288V27.36c-0.048,0-0.18,0.156-0.396,0.468c-0.216,0.313-0.576,0.685-1.08,1.116
		c-0.504,0.432-1.188,0.877-2.052,1.332c-0.864,0.457-1.944,0.805-3.24,1.044c-0.385,0.096-0.673,0.144-0.864,0.144
		c-0.576,0-1.177-0.133-1.8-0.396c-0.625-0.263-1.201-0.612-1.728-1.044c-0.529-0.432-0.972-0.947-1.332-1.549
		c-0.36-0.599-0.54-1.259-0.54-1.979c0-1.919,0.18-3.719,0.54-5.4c0.36-1.68,0.779-3.287,1.26-4.824c-0.576,0-1.285-0.06-2.124-0.18
		c-0.84-0.119-1.692-0.227-2.556-0.324c-0.961,1.584-1.944,3.18-2.952,4.788c-1.008,1.609-1.969,3.204-2.88,4.788
		c-0.529,0.913-1.188,1.849-1.98,2.808c-0.792,0.961-1.681,1.825-2.664,2.592c-0.984,0.768-2.041,1.404-3.168,1.908
		c-1.128,0.504-2.293,0.756-3.492,0.756C8.448,33.408,6.912,32.856,5.472,31.752z M7.488,14.616
		C5.808,14.856,4.511,15.66,3.6,17.028c-0.912,1.368-1.368,2.844-1.368,4.428c0,1.2,0.24,2.34,0.72,3.42
		c0.479,1.08,1.091,2.041,1.836,2.88c0.744,0.84,1.584,1.512,2.52,2.016s1.86,0.756,2.772,0.756c1.487,0,2.855-0.516,4.104-1.548
		c1.248-1.032,2.412-2.304,3.492-3.816c1.08-1.512,2.088-3.156,3.024-4.932c0.936-1.775,1.836-3.408,2.7-4.896
		c-1.92-0.24-3.84-0.456-5.76-0.648c-1.92-0.191-3.888-0.288-5.904-0.288C10.343,14.4,8.928,14.472,7.488,14.616z M35.928,5.904
		c-1.969,1.344-3.888,3.24-5.76,5.688c0.576,0.048,1.14,0.072,1.692,0.072c0.551,0,1.091,0.024,1.62,0.072
		c0.384-1.104,0.792-2.147,1.224-3.132C35.136,7.621,35.543,6.721,35.928,5.904z"/>
	<path fill="#FFFFFF" d="M54.288,12.96c0.048,0.144,0.072,0.336,0.072,0.576c0,0.097-0.013,0.192-0.036,0.288
		c-0.024,0.097-0.061,0.216-0.107,0.36c0.047,1.152,0.312,2.592,0.792,4.32c0.479,1.728,0.839,3.697,1.08,5.904
		c0,1.201-0.241,2.268-0.721,3.204c-0.48,0.936-1.104,1.717-1.872,2.34c-0.768,0.625-1.632,1.093-2.592,1.404
		c-0.961,0.312-1.92,0.468-2.88,0.468c-1.104,0-2.052-0.18-2.844-0.54c-0.792-0.359-1.453-0.815-1.98-1.367
		c-0.528-0.552-0.924-1.152-1.188-1.801c-0.264-0.648-0.396-1.26-0.396-1.836c0-0.72,0.18-1.355,0.54-1.908
		c0.36-0.551,0.876-0.875,1.548-0.972c0.432-0.72,0.923-1.56,1.476-2.52c0.552-0.959,1.091-1.932,1.62-2.916
		c0.527-0.983,1.031-1.919,1.512-2.808c0.479-0.888,0.911-1.667,1.296-2.34c0-0.191,0.036-0.456,0.108-0.792
		c0.071-0.335,0.18-0.672,0.323-1.008c0.145-0.335,0.3-0.612,0.469-0.828c0.167-0.216,0.323-0.324,0.468-0.324h-0.072
		c0,0.048,0.155,0.156,0.468,0.324c0.312,0.168,0.659,0.372,1.044,0.612c0.384,0.241,0.757,0.54,1.116,0.9
		C53.892,12.06,54.144,12.48,54.288,12.96z M47.52,29.16c0.576,0,1.14-0.096,1.692-0.288c0.551-0.191,1.067-0.468,1.548-0.828
		c0.479-0.36,0.863-0.803,1.151-1.332c0.288-0.528,0.433-1.104,0.433-1.728c0-0.576-0.108-1.248-0.324-2.016
		c-0.216-0.767-0.468-1.572-0.756-2.412c-0.288-0.839-0.564-1.656-0.828-2.448c-0.265-0.792-0.468-1.5-0.612-2.124
		c-0.816,1.2-1.681,2.437-2.592,3.708c-0.912,1.272-1.729,2.412-2.448,3.42c0.959-0.24,1.739-0.36,2.339-0.36
		c0.6,0,0.876-0.024,0.828-0.072c0.048,0,0.096,0.025,0.145,0.072c0.096,0.097,0.144,0.241,0.144,0.432
		c0,0.144-0.252,0.265-0.756,0.36c-0.504,0.097-1.068,0.241-1.691,0.432c-0.625,0.192-1.188,0.432-1.692,0.72
		s-0.756,0.72-0.756,1.296c0,0.288,0.108,0.612,0.324,0.972s0.504,0.696,0.864,1.008c0.36,0.313,0.804,0.588,1.332,0.828
		C46.391,29.041,46.944,29.16,47.52,29.16z"/>
	<path fill="#FFFFFF" d="M70.846,12.96c0.048,0.144,0.072,0.336,0.072,0.576c0,0.097-0.013,0.192-0.036,0.288
		c-0.024,0.097-0.061,0.216-0.107,0.36c0.047,1.152,0.312,2.592,0.792,4.32c0.479,1.728,0.839,3.697,1.08,5.904
		c0,1.201-0.241,2.268-0.721,3.204c-0.48,0.936-1.104,1.717-1.872,2.34c-0.768,0.625-1.632,1.093-2.592,1.404
		c-0.961,0.312-1.92,0.468-2.88,0.468c-1.104,0-2.052-0.18-2.844-0.54c-0.792-0.359-1.452-0.815-1.98-1.367
		c-0.527-0.552-0.924-1.152-1.188-1.801c-0.264-0.648-0.396-1.26-0.396-1.836c0-0.72,0.181-1.355,0.54-1.908
		c0.36-0.551,0.877-0.875,1.548-0.972c0.433-0.72,0.924-1.56,1.477-2.52c0.551-0.959,1.091-1.932,1.62-2.916
		c0.527-0.983,1.031-1.919,1.512-2.808c0.479-0.888,0.911-1.667,1.296-2.34c0-0.191,0.036-0.456,0.108-0.792
		c0.071-0.335,0.18-0.672,0.323-1.008c0.145-0.335,0.3-0.612,0.469-0.828c0.167-0.216,0.323-0.324,0.468-0.324h-0.072
		c0,0.048,0.155,0.156,0.468,0.324c0.312,0.168,0.659,0.372,1.044,0.612c0.384,0.241,0.757,0.54,1.116,0.9
		C70.451,12.06,70.703,12.48,70.846,12.96z M64.079,29.16c0.576,0,1.14-0.096,1.692-0.288c0.551-0.191,1.067-0.468,1.548-0.828
		c0.479-0.36,0.863-0.803,1.151-1.332c0.288-0.528,0.433-1.104,0.433-1.728c0-0.576-0.108-1.248-0.324-2.016
		c-0.216-0.767-0.468-1.572-0.756-2.412c-0.288-0.839-0.564-1.656-0.828-2.448c-0.265-0.792-0.468-1.5-0.612-2.124
		c-0.816,1.2-1.681,2.437-2.592,3.708c-0.912,1.272-1.728,2.412-2.448,3.42c0.96-0.24,1.739-0.36,2.34-0.36
		c0.6,0,0.876-0.024,0.828-0.072c0.048,0,0.096,0.025,0.145,0.072c0.096,0.097,0.144,0.241,0.144,0.432
		c0,0.144-0.252,0.265-0.756,0.36c-0.504,0.097-1.068,0.241-1.692,0.432c-0.624,0.192-1.188,0.432-1.691,0.72
		s-0.756,0.72-0.756,1.296c0,0.288,0.107,0.612,0.324,0.972c0.216,0.36,0.504,0.696,0.863,1.008c0.36,0.313,0.804,0.588,1.332,0.828
		C62.95,29.041,63.502,29.16,64.079,29.16z"/>
	<path fill="#FFFFFF" d="M90.431,17.208c0.047,0.241,0.071,0.468,0.071,0.684c0,0.216,0,0.445,0,0.684
		c0,1.728-0.372,3.373-1.116,4.932c-0.744,1.561-1.5,2.82-2.268,3.78c0.191,0.097,0.479,0.144,0.864,0.144
		c0.432,0,0.839-0.083,1.224-0.252c0.384-0.167,0.744-0.36,1.08-0.576c0.335-0.216,0.623-0.407,0.864-0.576
		c0.239-0.167,0.432-0.252,0.576-0.252c0.144,0,0.216,0.12,0.216,0.36c0,0.192-0.085,0.468-0.252,0.828
		c-0.169,0.36-0.433,0.72-0.792,1.08c-0.36,0.36-0.864,0.673-1.513,0.936c-0.647,0.265-1.429,0.396-2.34,0.396
		c-0.576,0-1.177-0.119-1.8-0.359c-0.24,0.336-0.805,0.828-1.692,1.476c-0.889,0.647-1.933,0.972-3.132,0.972
		c-1.008,0-1.86-0.215-2.556-0.647c-0.696-0.433-1.26-0.983-1.692-1.656c-0.432-0.671-0.756-1.392-0.972-2.16
		c-0.216-0.768-0.324-1.512-0.324-2.232c0-1.872,0.313-3.54,0.937-5.004c0.623-1.463,1.332-2.724,2.124-3.78
		c0.792-1.055,1.571-1.883,2.34-2.484c0.768-0.6,1.296-0.947,1.584-1.044c0.096,0,0.228,0.061,0.396,0.18
		c0.168,0.121,0.443,0.493,0.828,1.116c0.384-0.288,0.815-0.551,1.296-0.792c0.479-0.24,1.104-0.36,1.872-0.36
		c0.768,0,1.416,0.18,1.944,0.54c0.527,0.36,0.947,0.781,1.26,1.26c0.312,0.48,0.552,0.984,0.72,1.512
		C90.346,16.44,90.431,16.873,90.431,17.208z M80.639,29.665c0.239,0,0.6-0.096,1.079-0.289c0.479-0.191,1.056-0.6,1.729-1.224
		c-1.249-0.767-2.077-1.824-2.484-3.168c-0.408-1.343-0.611-2.664-0.611-3.96c0-0.288,0.011-0.587,0.035-0.9
		c0.024-0.312,0.061-0.612,0.108-0.9c-0.816,0.864-1.501,1.849-2.052,2.952c-0.553,1.105-0.828,2.304-0.828,3.6
		s0.263,2.244,0.792,2.844C78.934,29.221,79.678,29.569,80.639,29.665z M86.758,22.248c0.096-0.288,0.168-0.6,0.217-0.936
		c0.047-0.335,0.071-0.672,0.071-1.008c0-0.72-0.024-1.392-0.071-2.016c-0.049-0.623-0.217-0.983-0.505-1.08
		c-0.385,0-0.744,0.192-1.079,0.576c-0.337,0.385-0.637,0.853-0.9,1.404c-0.265,0.552-0.48,1.152-0.648,1.8s-0.252,1.26-0.252,1.836
		c0,0.529,0.096,1.201,0.288,2.016c0.191,0.817,0.576,1.321,1.152,1.512c0.384-0.528,0.72-1.127,1.008-1.8
		C86.327,23.88,86.566,23.112,86.758,22.248z"/>
	<path fill="#FFFFFF" d="M104.901,12.96c0.048,0.144,0.072,0.336,0.072,0.576c0,0.097-0.013,0.192-0.036,0.288
		c-0.024,0.097-0.061,0.216-0.107,0.36c0.047,1.152,0.312,2.592,0.792,4.32c0.479,1.728,0.839,3.697,1.08,5.904
		c0,1.201-0.241,2.268-0.721,3.204c-0.48,0.936-1.104,1.717-1.872,2.34c-0.768,0.625-1.632,1.093-2.592,1.404
		c-0.961,0.312-1.92,0.468-2.88,0.468c-1.104,0-2.052-0.18-2.844-0.54c-0.792-0.359-1.452-0.815-1.98-1.367
		c-0.527-0.552-0.924-1.152-1.188-1.801c-0.264-0.648-0.396-1.26-0.396-1.836c0-0.72,0.181-1.355,0.54-1.908
		c0.36-0.551,0.877-0.875,1.548-0.972c0.433-0.72,0.924-1.56,1.477-2.52c0.551-0.959,1.091-1.932,1.62-2.916
		c0.527-0.983,1.031-1.919,1.512-2.808c0.479-0.888,0.911-1.667,1.296-2.34c0-0.191,0.036-0.456,0.108-0.792
		c0.071-0.335,0.18-0.672,0.323-1.008c0.145-0.335,0.3-0.612,0.469-0.828c0.167-0.216,0.323-0.324,0.468-0.324h-0.072
		c0,0.048,0.155,0.156,0.468,0.324c0.312,0.168,0.659,0.372,1.044,0.612c0.384,0.241,0.757,0.54,1.116,0.9
		C104.505,12.06,104.757,12.48,104.901,12.96z M98.133,29.16c0.576,0,1.14-0.096,1.692-0.288c0.551-0.191,1.067-0.468,1.548-0.828
		c0.479-0.36,0.863-0.803,1.151-1.332c0.288-0.528,0.433-1.104,0.433-1.728c0-0.576-0.108-1.248-0.324-2.016
		c-0.216-0.767-0.468-1.572-0.756-2.412c-0.288-0.839-0.564-1.656-0.828-2.448c-0.265-0.792-0.468-1.5-0.612-2.124
		c-0.816,1.2-1.681,2.437-2.592,3.708c-0.912,1.272-1.728,2.412-2.448,3.42c0.96-0.24,1.739-0.36,2.34-0.36
		c0.6,0,0.876-0.024,0.828-0.072c0.048,0,0.096,0.025,0.145,0.072c0.096,0.097,0.144,0.241,0.144,0.432
		c0,0.144-0.252,0.265-0.756,0.36c-0.504,0.097-1.068,0.241-1.692,0.432c-0.624,0.192-1.188,0.432-1.691,0.72
		s-0.756,0.72-0.756,1.296c0,0.288,0.107,0.612,0.324,0.972c0.216,0.36,0.504,0.696,0.863,1.008c0.36,0.313,0.804,0.588,1.332,0.828
		C97.004,29.041,97.557,29.16,98.133,29.16z"/>
	<path fill="#FFFFFF" d="M112.533,31.463c-1.394,0-2.412-0.539-3.061-1.619c-0.647-1.08-0.972-2.292-0.972-3.636
		c0-1.44,0.216-2.904,0.647-4.392c0.433-1.487,0.912-2.88,1.44-4.176c0.527-1.296,1.02-2.448,1.476-3.456
		c0.456-1.008,0.731-1.751,0.828-2.232c-0.048,0.097,0.108,0.216,0.469,0.36c0.359,0.144,0.756,0.36,1.188,0.648
		s0.839,0.66,1.224,1.116c0.384,0.457,0.576,1.044,0.576,1.764c0,0.576-0.264,1.2-0.792,1.872c-0.816,1.537-1.645,3.168-2.483,4.896
		c-0.841,1.728-1.261,3.36-1.261,4.896c0,0.529,0.072,0.96,0.217,1.295c0.144,0.337,0.479,0.504,1.008,0.504
		c0.815,0,1.823-0.491,3.023-1.476c1.199-0.983,2.279-2.58,3.24-4.788l0.145-0.072c0.19,0,0.359,0.072,0.504,0.216l0.144,0.144
		c0-0.047-0.107,0.349-0.324,1.188c-0.216,0.84-0.611,1.776-1.188,2.808c-0.576,1.032-1.356,1.979-2.34,2.845
		C115.256,31.032,114.02,31.463,112.533,31.463z M119.084,9.792c-0.241,0.529-0.601,0.96-1.08,1.296
		c-0.48,0.336-0.984,0.504-1.512,0.504c-0.673,0-1.152-0.24-1.44-0.72c-0.288-0.479-0.432-1.031-0.432-1.656
		c0-0.767,0.227-1.392,0.684-1.872c0.456-0.479,1.02-0.72,1.692-0.72c0.672,0,1.224,0.216,1.656,0.648
		c0.432,0.432,0.647,0.96,0.647,1.584C119.3,9.192,119.228,9.504,119.084,9.792z"/>
	<path fill="#FFFFFF" d="M140.179,22.968c0.24,0.144,0.36,0.241,0.36,0.288c0,0.192-0.156,0.792-0.468,1.8
		c-0.312,1.008-0.756,2.088-1.332,3.24c-0.576,1.152-1.285,2.196-2.124,3.133c-0.841,0.936-1.789,1.404-2.844,1.404
		c-0.721,0-1.453-0.301-2.196-0.9c-0.745-0.602-1.285-1.645-1.62-3.133c-0.192,0.241-0.421,0.518-0.684,0.828
		c-0.265,0.312-0.601,0.602-1.009,0.864c-0.408,0.265-0.889,0.493-1.439,0.685c-0.553,0.191-1.236,0.287-2.052,0.287
		c-1.105,0-2.005-0.263-2.7-0.791c-0.696-0.528-1.236-1.176-1.62-1.944c-0.384-0.768-0.648-1.548-0.792-2.34
		s-0.216-1.476-0.216-2.052c0-1.343,0.265-2.748,0.792-4.212c0.527-1.464,1.26-2.796,2.196-3.996
		c0.936-1.199,2.039-2.184,3.312-2.952c1.271-0.767,2.675-1.152,4.212-1.152c1.056,0,1.884,0.156,2.484,0.468
		c0.6,0.313,1.163,0.637,1.691,0.972c0.096-0.144,0.155-0.299,0.181-0.468c0.023-0.167,0.06-0.299,0.107-0.396
		c0.048,0,0.264,0.108,0.648,0.324c0.384,0.216,0.792,0.504,1.224,0.864c0.433,0.36,0.815,0.745,1.152,1.152
		c0.335,0.408,0.504,0.828,0.504,1.26c0,0.385-0.072,0.756-0.216,1.116c-0.145,0.36-0.313,0.732-0.504,1.116h-0.072
		c-0.385,0.72-0.805,1.501-1.26,2.34c-0.457,0.84-0.877,1.692-1.261,2.556c-0.385,0.864-0.708,1.753-0.972,2.664
		c-0.265,0.913-0.396,1.8-0.396,2.664c0,1.584,0.335,2.376,1.008,2.376c0.672,0,1.535-0.659,2.592-1.98
		c1.056-1.319,2.016-3.323,2.88-6.011c0-0.047,0.047-0.072,0.145-0.072C139.987,22.968,140.083,22.968,140.179,22.968z
		 M129.812,27.432c0-1.631,0.263-3.312,0.792-5.04c0.527-1.728,1.055-3.215,1.584-4.464c-0.433-0.479-0.889-0.875-1.368-1.188
		c-0.48-0.312-1.008-0.468-1.584-0.468c-0.817,0-1.645,0.264-2.484,0.792c-0.84,0.529-1.62,1.212-2.34,2.052
		c-0.72,0.84-1.309,1.789-1.764,2.844c-0.457,1.056-0.685,2.113-0.685,3.168c0,0.529,0.036,1.056,0.108,1.584
		c0.072,0.529,0.239,1.033,0.504,1.511c0.264,0.48,0.623,0.865,1.08,1.152c0.455,0.289,1.091,0.432,1.908,0.432
		c0.815,0,1.584-0.215,2.304-0.647C128.587,28.728,129.236,28.152,129.812,27.432z"/>
	<path fill="#FFFFFF" d="M162.5,11.88c-0.817-0.096-1.74-0.167-2.772-0.216c-1.032-0.047-2.172-0.072-3.42-0.072
		c-0.961,0-1.992,0.036-3.096,0.108c-1.104,0.072-2.28,0.156-3.528,0.252c-0.673,1.345-1.404,2.82-2.196,4.428
		c-0.792,1.609-1.523,3.204-2.195,4.788c-0.673,1.584-1.225,3.06-1.656,4.428c-0.432,1.368-0.648,2.484-0.648,3.348
		c0,0.912,0.384,1.368,1.152,1.368c0.815,0,1.848-0.468,3.096-1.404c1.248-0.936,2.376-2.484,3.385-4.644l0.144-0.072
		c0.145,0,0.288,0.072,0.432,0.216l0.145,0.144c-0.48,1.632-1.008,2.941-1.584,3.923c-0.576,0.984-1.356,1.897-2.34,2.736
		c-0.984,0.84-2.221,1.26-3.708,1.26c-0.385,0-0.792-0.061-1.225-0.18c-0.432-0.12-0.84-0.349-1.224-0.684
		c-0.384-0.336-0.708-0.779-0.972-1.332c-0.264-0.551-0.396-1.26-0.396-2.124c0-1.008,0.145-2.16,0.433-3.456
		c0.287-1.296,0.647-2.651,1.079-4.068c0.433-1.416,0.912-2.819,1.44-4.212c0.527-1.392,1.056-2.711,1.584-3.96
		c-0.48,0.192-0.936,0.312-1.368,0.36c-0.432,0.048-0.84,0.072-1.224,0.072c-1.392,0-2.508-0.335-3.349-1.008
		c-0.839-0.672-1.26-1.416-1.26-2.232c0-1.104,0.721-2.04,2.16-2.808c0.432,0,0.745,0.072,0.937,0.216
		c0.192,0.144,0.287,0.265,0.287,0.36c0,0.144-0.071,0.216-0.216,0.216c-0.096,0-0.18-0.036-0.252-0.108
		c-0.072-0.072-0.203-0.108-0.396-0.108c-0.24,0-0.504,0.097-0.792,0.288c-0.288,0.192-0.433,0.576-0.433,1.152
		c0,0.96,0.648,1.44,1.944,1.44c0.673,0,1.428-0.108,2.268-0.324c0.84-0.216,1.908-0.492,3.204-0.828
		c0.288-0.624,0.6-1.356,0.937-2.196c0.335-0.839,0.647-1.631,0.936-2.376c0.288-0.744,0.6-1.644,0.937-2.7
		c0.191,0,0.515,0.108,0.972,0.324c0.456,0.216,0.9,0.493,1.332,0.828c0.432,0.336,0.815,0.732,1.152,1.188
		c0.335,0.457,0.504,0.925,0.504,1.404c0,0.385-0.072,0.745-0.216,1.08c-0.145,0.336-0.337,0.72-0.576,1.152
		c1.775-0.288,3.42-0.492,4.932-0.612c1.512-0.119,2.892-0.18,4.14-0.18c1.729,0,3.144,0.084,4.248,0.252
		c1.104,0.169,1.848,0.301,2.232,0.396c0.479,0.192,0.911,0.457,1.296,0.792c0.335,0.288,0.648,0.661,0.937,1.116
		c0.287,0.457,0.432,1.044,0.432,1.764c0,0.048-0.013,0.18-0.036,0.396c-0.024,0.216-0.048,0.444-0.072,0.684
		c-0.024,0.241-0.071,0.457-0.144,0.648c-0.072,0.192-0.156,0.288-0.252,0.288c-0.145,0-0.337-0.06-0.576-0.18
		c-0.241-0.119-0.612-0.263-1.116-0.432c-0.504-0.167-1.188-0.335-2.052-0.504C165.019,12.108,163.891,11.977,162.5,11.88z"/>
	<path fill="#FFFFFF" d="M167.178,24.84c0.096,0.097,0.145,0.192,0.145,0.288c-0.72,1.344-1.561,2.52-2.521,3.528
		c-0.816,0.864-1.86,1.656-3.132,2.376c-1.272,0.721-2.748,1.08-4.428,1.08c-1.249,0-2.304-0.264-3.168-0.792
		s-1.561-1.188-2.088-1.979c-0.529-0.793-0.9-1.644-1.116-2.557c-0.216-0.911-0.324-1.728-0.324-2.448
		c0-1.631,0.265-3.204,0.792-4.716c0.528-1.512,1.248-2.867,2.16-4.068c0.911-1.199,1.944-2.16,3.096-2.88
		c1.152-0.72,2.352-1.08,3.601-1.08c1.535,0,2.724,0.432,3.563,1.296c0.84,0.864,1.261,1.8,1.261,2.808s-0.217,1.969-0.648,2.88
		c-0.432,0.913-1.021,1.717-1.764,2.412c-0.745,0.696-1.62,1.249-2.628,1.656c-1.009,0.408-2.064,0.612-3.168,0.612
		c-0.769,0-1.417-0.083-1.944-0.252c-0.528-0.167-0.912-0.371-1.152-0.612c-0.288,0.864-0.432,1.728-0.432,2.592
		c0,1.344,0.42,2.556,1.26,3.636c0.84,1.08,1.955,1.62,3.349,1.62c1.055,0,2.123-0.288,3.203-0.864s1.932-1.08,2.557-1.512
		c0.72-0.527,1.283-0.983,1.691-1.368c0.407-0.383,0.708-0.708,0.9-0.972c0.191-0.263,0.324-0.456,0.396-0.576
		c0.072-0.119,0.155-0.18,0.253-0.18C166.986,24.768,167.082,24.792,167.178,24.84z M155.802,18.144
		c-0.672,0.96-1.272,2.016-1.8,3.168c0.145,0.048,0.456,0.072,0.937,0.072c0.72,0,1.415-0.167,2.088-0.504
		c0.672-0.335,1.26-0.744,1.764-1.224c0.504-0.479,0.911-0.996,1.224-1.548c0.312-0.551,0.469-1.02,0.469-1.404
		c0-0.623-0.337-0.936-1.008-0.936c-0.48,0-1.045,0.18-1.692,0.54C157.134,16.668,156.474,17.28,155.802,18.144z"/>
	<path fill="#D24949" d="M257.179,32.471c0.19,0.576,0.288,1.152,0.288,1.729c0,0.768-0.145,1.451-0.433,2.053
		c-0.288,0.6-0.624,1.091-1.008,1.476c-0.432,0.527-0.912,0.96-1.44,1.296c-1.632,1.248-3.54,2.207-5.724,2.88
		c-2.185,0.672-4.309,1.176-6.372,1.513c-2.064,0.334-3.913,0.539-5.544,0.611c-1.633,0.072-2.736,0.107-3.312,0.107
		c-3.793,0-7.561-0.336-11.305-1.008s-7.104-1.416-10.08-2.231c-2.977-0.817-6.312-1.921-10.008-3.312
		c-2.784-0.961-5.232-1.729-7.344-2.305c-2.113-0.576-3.949-1.033-5.508-1.368c-1.561-0.336-2.869-0.552-3.924-0.647
		c-1.057-0.098-1.897-0.145-2.521-0.145c-0.336,0-0.601,0.012-0.792,0.036c-0.192,0.024-0.36,0.036-0.504,0.036
		c-0.192,0.047-0.337,0.072-0.432,0.072l-0.072-0.36c-1.296,1.247-2.495,2.269-3.601,3.06c-1.104,0.793-2.135,1.404-3.096,1.836
		c-0.96,0.433-1.836,0.732-2.628,0.9s-1.476,0.252-2.052,0.252c-1.392,0-2.269-0.168-2.628-0.504c-0.36-0.336-0.54-0.696-0.54-1.08
		c0-0.863,0.312-1.645,0.936-2.34c0.625-0.696,1.429-1.309,2.412-1.836c0.984-0.529,2.041-0.973,3.168-1.332
		c1.129-0.359,2.196-0.659,3.204-0.9c1.008-0.239,1.872-0.406,2.592-0.504c0.721-0.096,1.152-0.144,1.296-0.144h0.145
		c0.096,0,0.144-0.024,0.144-0.072l-0.071,0.072c1.487-1.584,2.916-3.636,4.283-6.156c1.368-2.52,2.64-5.184,3.816-7.992
		c1.176-2.808,2.256-5.591,3.24-8.352c0.983-2.76,1.811-5.148,2.483-7.164c0.096,0.048,0.36,0.156,0.792,0.324
		c0.433,0.169,0.876,0.396,1.332,0.684s0.876,0.648,1.261,1.08c0.383,0.432,0.575,0.936,0.575,1.512
		c0,0.241-0.024,0.493-0.071,0.756c-0.049,0.264-0.145,0.564-0.288,0.9c-0.673,1.393-1.429,2.964-2.269,4.716
		c-0.84,1.753-1.753,3.553-2.735,5.4c-0.984,1.848-1.98,3.661-2.988,5.436c-1.008,1.776-2.016,3.336-3.024,4.68
		c-0.624,0.817-1.213,1.548-1.764,2.197c-0.553,0.647-1.068,1.308-1.548,1.979c2.063,0.097,4.235,0.337,6.516,0.72
		c2.279,0.384,4.403,0.792,6.372,1.225c2.304,0.527,4.536,1.08,6.696,1.655c4.943,1.199,9.983,2.315,15.12,3.349
		c5.136,1.031,10.392,1.547,15.768,1.547c4.416,0,8.088-0.323,11.017-0.971c2.927-0.648,5.303-1.381,7.128-2.197
		C254.25,34.727,255.93,33.67,257.179,32.471z M168.187,37.152c0.673,0.288,1.452,0.348,2.34,0.181
		c0.889-0.17,1.776-0.469,2.664-0.9c0.889-0.432,1.728-0.937,2.52-1.512c0.792-0.576,1.453-1.105,1.98-1.584
		c-1.68,0.144-3.191,0.383-4.536,0.719c-1.152,0.289-2.232,0.672-3.24,1.152C168.907,35.687,168.331,36.334,168.187,37.152z"/>
	<path fill="#D24949" d="M210.954,24.84c0.096,0.097,0.145,0.192,0.145,0.288c-0.72,1.344-1.561,2.52-2.521,3.528
		c-0.816,0.864-1.86,1.656-3.132,2.376c-1.272,0.721-2.748,1.08-4.428,1.08c-1.249,0-2.304-0.264-3.168-0.792
		s-1.561-1.188-2.088-1.979c-0.529-0.793-0.9-1.644-1.116-2.557c-0.216-0.911-0.324-1.728-0.324-2.448
		c0-1.631,0.265-3.204,0.792-4.716c0.528-1.512,1.248-2.867,2.16-4.068c0.911-1.199,1.944-2.16,3.096-2.88
		c1.152-0.72,2.352-1.08,3.601-1.08c1.535,0,2.724,0.432,3.563,1.296c0.84,0.864,1.261,1.8,1.261,2.808s-0.217,1.969-0.648,2.88
		c-0.432,0.913-1.021,1.717-1.764,2.412c-0.745,0.696-1.62,1.249-2.628,1.656c-1.009,0.408-2.064,0.612-3.168,0.612
		c-0.769,0-1.417-0.083-1.944-0.252c-0.528-0.167-0.912-0.371-1.152-0.612c-0.288,0.864-0.432,1.728-0.432,2.592
		c0,1.344,0.42,2.556,1.26,3.636c0.84,1.08,1.955,1.62,3.349,1.62c1.055,0,2.123-0.288,3.203-0.864s1.932-1.08,2.557-1.512
		c0.72-0.527,1.283-0.983,1.691-1.368c0.407-0.383,0.708-0.708,0.9-0.972c0.191-0.263,0.324-0.456,0.396-0.576
		c0.072-0.119,0.155-0.18,0.253-0.18C210.761,24.768,210.857,24.792,210.954,24.84z M199.578,18.144
		c-0.672,0.96-1.272,2.016-1.8,3.168c0.145,0.048,0.456,0.072,0.937,0.072c0.72,0,1.415-0.167,2.088-0.504
		c0.672-0.335,1.26-0.744,1.764-1.224c0.504-0.479,0.911-0.996,1.224-1.548c0.312-0.551,0.469-1.02,0.469-1.404
		c0-0.623-0.337-0.936-1.008-0.936c-0.48,0-1.045,0.18-1.692,0.54C200.91,16.668,200.25,17.28,199.578,18.144z"/>
	<path fill="#D24949" d="M232.049,22.968c0.24,0.144,0.36,0.241,0.36,0.288c0,0.192-0.156,0.792-0.468,1.8
		c-0.312,1.008-0.756,2.088-1.332,3.24c-0.576,1.152-1.285,2.196-2.124,3.133c-0.841,0.936-1.789,1.404-2.844,1.404
		c-0.721,0-1.453-0.301-2.196-0.9c-0.745-0.602-1.285-1.645-1.62-3.133c-0.192,0.241-0.421,0.518-0.684,0.828
		c-0.265,0.312-0.601,0.602-1.009,0.864c-0.408,0.265-0.889,0.493-1.439,0.685c-0.553,0.191-1.236,0.287-2.052,0.287
		c-1.105,0-2.005-0.263-2.7-0.791c-0.696-0.528-1.236-1.176-1.62-1.944c-0.384-0.768-0.648-1.548-0.792-2.34
		s-0.216-1.476-0.216-2.052c0-1.343,0.265-2.748,0.792-4.212c0.527-1.464,1.26-2.796,2.196-3.996
		c0.936-1.199,2.039-2.184,3.312-2.952c1.271-0.767,2.675-1.152,4.212-1.152c1.056,0,1.884,0.156,2.484,0.468
		c0.6,0.313,1.163,0.637,1.691,0.972c0.096-0.144,0.155-0.299,0.181-0.468c0.023-0.167,0.06-0.299,0.107-0.396
		c0.048,0,0.264,0.108,0.648,0.324c0.384,0.216,0.792,0.504,1.224,0.864c0.433,0.36,0.815,0.745,1.152,1.152
		c0.335,0.408,0.504,0.828,0.504,1.26c0,0.385-0.072,0.756-0.216,1.116c-0.145,0.36-0.313,0.732-0.504,1.116h-0.072
		c-0.385,0.72-0.805,1.501-1.26,2.34c-0.457,0.84-0.877,1.692-1.261,2.556c-0.385,0.864-0.708,1.753-0.972,2.664
		c-0.265,0.913-0.396,1.8-0.396,2.664c0,1.584,0.335,2.376,1.008,2.376c0.672,0,1.535-0.659,2.592-1.98
		c1.056-1.319,2.016-3.323,2.88-6.011c0-0.047,0.047-0.072,0.145-0.072C231.857,22.968,231.953,22.968,232.049,22.968z
		 M221.682,27.432c0-1.631,0.263-3.312,0.792-5.04c0.527-1.728,1.055-3.215,1.584-4.464c-0.433-0.479-0.889-0.875-1.368-1.188
		c-0.48-0.312-1.008-0.468-1.584-0.468c-0.817,0-1.645,0.264-2.484,0.792c-0.84,0.529-1.62,1.212-2.34,2.052
		c-0.72,0.84-1.309,1.789-1.764,2.844c-0.457,1.056-0.685,2.113-0.685,3.168c0,0.529,0.036,1.056,0.108,1.584
		c0.072,0.529,0.239,1.033,0.504,1.511c0.264,0.48,0.623,0.865,1.08,1.152c0.455,0.289,1.091,0.432,1.908,0.432
		c0.815,0,1.584-0.215,2.304-0.647C220.458,28.728,221.106,28.152,221.682,27.432z"/>
	<path fill="#D24949" d="M250.986,13.392c0.047,0.097,0.071,0.265,0.071,0.504c0,0.385-0.097,0.792-0.288,1.224
		c-1.151,2.448-2.4,5.137-3.743,8.064c-1.345,2.929-2.521,5.88-3.528,8.856c0.911,0.047,1.847,0.119,2.808,0.217
		c0.96,0.096,1.824,0.275,2.592,0.539s1.392,0.648,1.872,1.152c0.479,0.504,0.721,1.163,0.721,1.98c0,0.623-0.145,1.247-0.433,1.871
		c-0.288,0.623-0.684,1.176-1.188,1.656c-0.504,0.479-1.08,0.875-1.729,1.188c-0.647,0.312-1.332,0.468-2.052,0.468
		c-1.249,0-2.425-0.48-3.528-1.439c-1.104-0.961-1.776-2.209-2.016-3.744c-0.864,0.096-1.872,0.227-3.024,0.396
		c-1.151,0.167-2.257,0.348-3.312,0.54c-1.057,0.191-1.944,0.407-2.664,0.648c-0.72,0.239-1.08,0.455-1.08,0.647
		c-0.144-0.575-0.216-1.104-0.216-1.584c0-0.72,0.12-1.321,0.36-1.8c0.24-0.48,0.516-0.864,0.827-1.152
		c0.313-0.287,0.625-0.504,0.937-0.648c0.312-0.143,0.54-0.24,0.684-0.287c1.152-0.192,2.352-0.324,3.601-0.396
		c1.247-0.072,2.639-0.156,4.176-0.252c0.047-0.24,0.096-0.444,0.144-0.611c0.048-0.168,0.096-0.371,0.145-0.612
		c-0.433,0.192-0.889,0.385-1.368,0.575c-0.48,0.191-1.08,0.289-1.8,0.289c-1.152,0-2.088-0.252-2.809-0.756
		c-0.72-0.504-1.284-1.117-1.691-1.836c-0.407-0.721-0.695-1.488-0.864-2.305c-0.168-0.815-0.275-1.536-0.324-2.16
		c0-1.296,0.241-2.675,0.721-4.14c0.479-1.464,1.163-2.808,2.052-4.032c0.888-1.224,1.955-2.243,3.204-3.06
		c1.247-0.815,2.664-1.271,4.248-1.368c0.959,0,1.774,0.097,2.447,0.288c0.672,0.192,1.271,0.408,1.801,0.648
		c0.239-0.384,0.468-0.768,0.684-1.152c0.216-0.383,0.348-0.792,0.396-1.224c0.527,0.288,1.008,0.576,1.439,0.864
		c0.384,0.241,0.744,0.529,1.08,0.864C250.672,12.648,250.888,13.008,250.986,13.392z M241.553,28.799
		c0.527-2.16,1.127-4.223,1.8-6.191c0.672-1.968,1.271-3.719,1.801-5.256c-0.817-0.672-1.776-1.008-2.881-1.008
		c-0.863,0-1.728,0.252-2.592,0.756c-0.863,0.504-1.655,1.165-2.376,1.98c-0.72,0.817-1.309,1.741-1.764,2.772
		c-0.457,1.033-0.685,2.1-0.685,3.204c0,0.576,0.048,1.152,0.145,1.728c0.096,0.576,0.263,1.092,0.504,1.549
		c0.239,0.456,0.6,0.84,1.08,1.151c0.479,0.312,1.127,0.468,1.944,0.468c0.239,0,0.527-0.035,0.863-0.107s0.672-0.156,1.009-0.252
		c0.335-0.096,0.611-0.217,0.827-0.36C241.446,29.088,241.553,28.944,241.553,28.799z M247.673,35.064
		c-0.816,0-1.692,0.096-2.628,0.288c-0.936,0.191-2.124,0.335-3.564,0.432c0.145,0.047,0.312,0.072,0.505,0.072
		c0.144,0.047,0.275,0.072,0.396,0.072c0.119,0,0.228,0.023,0.324,0.072c0.239,0.959,0.707,1.799,1.404,2.52
		c0.694,0.72,1.499,1.08,2.411,1.08c0.624,0,1.332-0.265,2.124-0.793c0.792-0.527,1.188-1.344,1.188-2.447
		c0-0.385-0.156-0.696-0.468-0.936C249.052,35.183,248.489,35.064,247.673,35.064z"/>
	<path fill="#D24949" d="M271.001,22.968c0.239,0.144,0.359,0.241,0.359,0.288c0,0.192-0.156,0.792-0.468,1.8
		c-0.312,1.008-0.756,2.088-1.332,3.24c-0.576,1.152-1.284,2.196-2.124,3.133c-0.84,0.936-1.788,1.404-2.844,1.404
		c-0.961,0-1.86-0.518-2.7-1.549s-1.26-2.387-1.26-4.068c-0.288,0.48-0.624,0.972-1.008,1.476c-0.385,0.504-0.817,0.961-1.296,1.368
		c-0.48,0.408-1.009,0.745-1.584,1.008c-0.576,0.263-1.177,0.396-1.801,0.396c-0.912,0-1.764-0.455-2.556-1.367
		s-1.188-2.232-1.188-3.96c0-1.152,0.156-2.376,0.468-3.672c0.312-1.296,0.684-2.531,1.116-3.708
		c0.432-1.176,0.863-2.232,1.296-3.168c0.432-0.936,0.767-1.667,1.008-2.196h-0.072c0.288-0.479,0.552-0.959,0.792-1.44
		c0.24-0.383,0.443-0.779,0.612-1.188c0.167-0.407,0.299-0.756,0.396-1.044c0.048,0,0.252,0.108,0.612,0.324
		c0.36,0.216,0.731,0.504,1.116,0.864c0.384,0.36,0.743,0.756,1.08,1.188c0.335,0.432,0.504,0.864,0.504,1.296
		c0,0.529-0.288,1.345-0.864,2.448c-0.576,1.104-1.224,2.316-1.944,3.636c-0.72,1.321-1.367,2.689-1.943,4.104
		c-0.576,1.417-0.864,2.725-0.864,3.924c0,0.576,0.083,1.056,0.252,1.44c0.168,0.385,0.54,0.576,1.116,0.576
		c0.672,0,1.476-0.396,2.412-1.188c0.936-0.792,1.811-2.148,2.628-4.069c0.335-1.68,0.803-3.264,1.404-4.752
		c0.6-1.487,1.067-2.567,1.403-3.24c0.24-0.479,0.456-0.96,0.648-1.44c0.191-0.384,0.359-0.78,0.504-1.188
		c0.144-0.407,0.263-0.756,0.359-1.044c0.048,0,0.264,0.108,0.648,0.324c0.384,0.216,0.792,0.504,1.224,0.864
		c0.433,0.36,0.816,0.756,1.152,1.188c0.335,0.432,0.504,0.864,0.504,1.296c0,0.576-0.24,1.332-0.72,2.268
		c-0.48,0.936-1.021,1.969-1.62,3.096c-0.601,1.128-1.141,2.304-1.62,3.528c-0.48,1.224-0.72,2.388-0.72,3.492
		c0,1.584,0.335,2.376,1.008,2.376c0.672,0,1.536-0.659,2.592-1.98c1.056-1.319,2.017-3.323,2.88-6.011
		c0-0.047,0.048-0.072,0.145-0.072C270.809,22.968,270.905,22.968,271.001,22.968z"/>
	<path fill="#D24949" d="M287.489,24.84c0.096,0.097,0.145,0.192,0.145,0.288c-0.72,1.344-1.561,2.52-2.521,3.528
		c-0.816,0.864-1.86,1.656-3.132,2.376c-1.272,0.721-2.748,1.08-4.428,1.08c-1.249,0-2.304-0.264-3.168-0.792
		s-1.561-1.188-2.088-1.979c-0.529-0.793-0.9-1.644-1.116-2.557c-0.216-0.911-0.324-1.728-0.324-2.448
		c0-1.631,0.265-3.204,0.792-4.716c0.528-1.512,1.248-2.867,2.16-4.068c0.911-1.199,1.944-2.16,3.096-2.88
		c1.152-0.72,2.352-1.08,3.601-1.08c1.535,0,2.724,0.432,3.563,1.296c0.84,0.864,1.261,1.8,1.261,2.808s-0.217,1.969-0.648,2.88
		c-0.432,0.913-1.021,1.717-1.764,2.412c-0.745,0.696-1.62,1.249-2.628,1.656c-1.009,0.408-2.064,0.612-3.168,0.612
		c-0.769,0-1.417-0.083-1.944-0.252c-0.528-0.167-0.912-0.371-1.152-0.612c-0.288,0.864-0.432,1.728-0.432,2.592
		c0,1.344,0.42,2.556,1.26,3.636c0.84,1.08,1.955,1.62,3.349,1.62c1.055,0,2.123-0.288,3.203-0.864s1.932-1.08,2.557-1.512
		c0.72-0.527,1.283-0.983,1.691-1.368c0.407-0.383,0.708-0.708,0.9-0.972c0.191-0.263,0.324-0.456,0.396-0.576
		c0.072-0.119,0.155-0.18,0.253-0.18C287.296,24.768,287.392,24.792,287.489,24.84z M276.113,18.144
		c-0.672,0.96-1.272,2.016-1.8,3.168c0.145,0.048,0.456,0.072,0.937,0.072c0.72,0,1.415-0.167,2.088-0.504
		c0.672-0.335,1.26-0.744,1.764-1.224c0.504-0.479,0.911-0.996,1.224-1.548c0.312-0.551,0.469-1.02,0.469-1.404
		c0-0.623-0.337-0.936-1.008-0.936c-0.48,0-1.045,0.18-1.692,0.54C277.445,16.668,276.785,17.28,276.113,18.144z"/>
</g>
</svg>
